<?xml version="1.0" standalone="no"?>
<!DOCTYPE svg PUBLIC "-//W3C//DTD SVG 20010904//EN"
 "http://www.w3.org/TR/2001/REC-SVG-20010904/DTD/svg10.dtd">
<svg version="1.0" xmlns="http://www.w3.org/2000/svg"
 width="1280.000000pt" height="640.000000pt" viewBox="0 0 1280.000000 640.000000"
 preserveAspectRatio="xMidYMid meet">
<g transform="translate(0.000000,640.000000) scale(0.100000,-0.100000)"
fill="#000000" stroke="none">
<path d="M8440 6003 c0 -5 52 -150 115 -323 115 -314 115 -315 97 -340 -10
-14 -238 -334 -506 -711 l-487 -687 -47 -6 c-26 -3 -249 -26 -497 -51 -247
-25 -558 -57 -690 -70 -270 -28 -722 -74 -1080 -110 -609 -62 -923 -61 -1405
1 -219 28 -340 52 -417 83 -67 26 -170 78 -176 88 -3 5 5 67 19 138 13 72 24
138 24 148 0 15 -13 17 -124 17 l-123 0 -37 -55 c-20 -30 -42 -55 -49 -55 -17
0 -203 168 -477 431 -191 183 -471 466 -1025 1037 l-101 103 -207 -52 c-114
-28 -207 -54 -207 -58 0 -3 264 -523 585 -1156 641 -1261 600 -1166 513 -1180
-21 -4 -42 -13 -45 -21 -3 -7 5 -46 17 -85 12 -39 18 -75 13 -79 -17 -14 -111
-43 -533 -160 -615 -171 -1254 -355 -1398 -401 -127 -42 -192 -82 -192 -119 0
-20 60 -77 96 -90 12 -5 94 -16 181 -25 l158 -17 935 252 c514 138 952 256
972 262 34 10 46 6 185 -55 293 -129 825 -333 1133 -434 102 -33 165 -47 260
-58 69 -7 262 -30 430 -50 305 -37 305 -37 590 -31 244 5 283 4 270 -8 -8 -7
-818 -302 -1799 -655 -1637 -589 -1785 -640 -1805 -627 -11 7 -100 82 -196
166 l-175 152 -80 -6 c-44 -3 -137 -11 -207 -17 l-127 -12 196 -201 c107 -110
231 -248 274 -306 84 -114 103 -129 194 -156 49 -15 92 -19 235 -18 l175 0
615 203 c338 111 1133 373 1765 582 633 208 1312 432 1510 499 198 66 367 120
376 120 8 0 26 -12 40 -26 13 -14 36 -35 51 -45 l27 -19 13 27 c18 37 63 61
131 69 70 8 72 0 18 -64 -50 -61 -73 -107 -69 -140 3 -28 18 -32 92 -21 27 4
32 -1 59 -53 38 -76 96 -134 162 -164 72 -33 248 -48 460 -40 88 4 255 11 370
15 116 4 222 13 237 19 34 14 208 134 230 159 45 49 118 254 118 330 0 42 -48
230 -70 274 -25 48 -86 101 -143 125 -46 19 -55 28 -39 38 9 5 560 71 842 101
74 8 308 28 520 45 1073 85 2210 206 2553 271 285 53 578 200 840 419 112 94
155 148 182 226 17 51 17 55 1 99 -32 83 -156 184 -401 325 -60 35 -130 81
-155 103 -71 62 -244 140 -425 192 -269 78 -423 114 -575 136 -139 21 -158 21
-425 10 -444 -19 -1299 -84 -1931 -147 -39 -4 -64 -3 -68 4 -4 6 86 296 199
644 113 348 204 642 202 653 -2 11 -99 161 -216 333 l-213 312 -169 0 c-93 0
-169 -3 -169 -7z"/>
</g>
</svg>
